<svg xmlns="http://www.w3.org/2000/svg" viewBox="0 0 800 800">
  <rect width="800" height="800" fill="#10141b" />
  <g transform="translate(0,800) scale(0.1,-0.1)" fill="#c68a3e">
    <path d="M5162 7505 c-29 -8 -67 -22 -84 -31 -45 -23 -122 -99 -158 -154 -95 -149 -125 -414 -69 -627 29 -110 71 -214 196 -488 114 -248 188 -435 199 -502 14 -91 -49 -190 -149 -233 -50 -22 -58 -22 -197 -14 -246 15 -678 10 -815 -10 -558 -80 -991 -268 -1580 -684 -593 -418 -580 -410 -682 -448 -221 -81 -416 -198 -591 -354 -332 -295 -545 -713 -481 -943 15 -56 70 -112 124 -127 61 -17 184 -8 265 19 106 36 277 125 415 216 l129 86 105 -25 c202 -47 244 -51 516 -50 248 1 274 3 559 42 165 23 305 42 311 42 7 0 33 -47 60 -105 102 -224 194 -329 307 -350 99 -19 236 137 323 369 l22 59 96 43 c366 162 702 460 1148 1019 139 174 437 568 496 655 78 114 128 214 167 330 45 137 60 244 53 389 -8 172 -30 237 -237 711 -137 313 -148 351 -109 386 26 24 145 31 233 15 33 -6 61 -9 63 -7 7 7 103 366 103 384 -1 26 -60 137 -100 186 -43 53 -118 111 -186 142 -129 60 -347 89 -452 59z M6096 6973 c-14 -48 -86 -322 -86 -327 0 -3 6 -6 13 -6 22 0 131 -56 202 -105 256 -176 555 -510 945 -1057 46 -65 85 -116 87 -114 7 7 -29 163 -60 256 -35 108 -143 329 -213 440 -200 316 -505 643 -821 883 -52 40 -62 44 -67 30z M2975 2901 c-26 -5 -36 -18 -72 -91 -23 -47 -64 -141 -92 -210 -109 -276 -126 -377 -118 -740 5 -252 24 -483 62 -759 8 -58 15 -108 15 -112 0 -3 -26 -17 -57 -30 -104 -40 -373 -182 -373 -195 0 -2 34 -56 75 -119 l74 -115 93 49 c120 64 199 84 303 79 105 -5 191 -44 271 -122 l57 -55 59 40 c85 58 190 106 288 130 72 18 103 21 220 16 160 -6 271 -32 534 -127 93 -33 170 -59 171 -58 6 9 85 241 85 252 0 11 -335 120 -520 170 -63 17 -199 42 -282 51 -41 5 -59 11 -62 23 -31 101 -123 592 -147 785 -21 175 -1 493 47 723 l6 31 -75 6 c-45 3 -100 15 -138 31 -35 14 -64 24 -65 23 -8 -8 -55 -356 -64 -467 -18 -242 19 -544 126 -1029 18 -84 32 -157 29 -160 -2 -4 -36 -20 -74 -35 l-71 -28 -60 40 c-33 23 -84 52 -113 66 l-53 25 -22 163 c-45 335 -55 477 -56 758 -1 251 1 282 21 360 22 87 87 261 142 383 l30 68 -34 44 c-19 25 -47 68 -62 95 -29 52 -35 55 -98 41z"/>
  </g>
</svg>
